<?xml version="1.0" encoding="utf-8"?>
<!-- Generator: Adobe Illustrator 21.1.0, SVG Export Plug-In . SVG Version: 6.00 Build 0)  -->
<svg version="1.1" id="Layer_1" xmlns="http://www.w3.org/2000/svg" xmlns:xlink="http://www.w3.org/1999/xlink" x="0px" y="0px"
	 viewBox="0 0 53.5 30.4" style="enable-background:new 0 0 53.5 30.4;" xml:space="preserve">
<style type="text/css">
	.st0{fill:#5654C6;}
</style>
<path class="st0" d="M51.8,1.6c-1.5-1.5-3.9-1.5-5.4,0L27,20.9L7.1,1c0,0,0,0,0,0c-1.5-1.5-4-1.5-5.6,0c0,0,0,0,0,0
	C0,2.6,0,5.1,1.5,6.6L23.9,29c1.5,1.5,4,1.5,5.5,0c0,0,0,0,0.1-0.1c0.3-0.1,0.5-0.3,0.8-0.5L51.8,6.9C53.2,5.4,53.2,3,51.8,1.6z"/>
</svg>
